<svg width="18" height="18" viewBox="0 0 18 18" fill="none" xmlns="http://www.w3.org/2000/svg">
<path d="M12 12.75V14.25H1.5V12.75C1.5 12.75 1.5 9.75001 6.75 9.75001C12 9.75001 12 12.75 12 12.75ZM9.375 5.62501C9.375 5.10583 9.22105 4.59832 8.93261 4.16664C8.64417 3.73496 8.2342 3.39851 7.75454 3.19983C7.27489 3.00115 6.74709 2.94916 6.23789 3.05045C5.72869 3.15173 5.26096 3.40174 4.89385 3.76885C4.52673 4.13597 4.27673 4.6037 4.17544 5.1129C4.07415 5.6221 4.12614 6.1499 4.32482 6.62955C4.5235 7.10921 4.85995 7.51918 5.29163 7.80762C5.72331 8.09606 6.23082 8.25001 6.75 8.25001C7.44619 8.25001 8.11387 7.97345 8.60616 7.48116C9.09844 6.98888 9.375 6.3212 9.375 5.62501ZM11.955 9.75001C12.4161 10.1068 12.7933 10.5603 13.0603 11.0786C13.3272 11.5969 13.4773 12.1674 13.5 12.75V14.25H16.5V12.75C16.5 12.75 16.5 10.0275 11.955 9.75001ZM11.25 3.00001C10.7338 2.99713 10.2289 3.15148 9.8025 3.44251C10.2581 4.07906 10.503 4.84222 10.503 5.62501C10.503 6.40779 10.2581 7.17096 9.8025 7.80751C10.2289 8.09854 10.7338 8.25288 11.25 8.25001C11.9462 8.25001 12.6139 7.97345 13.1062 7.48116C13.5984 6.98888 13.875 6.3212 13.875 5.62501C13.875 4.92882 13.5984 4.26114 13.1062 3.76885C12.6139 3.27657 11.9462 3.00001 11.25 3.00001Z" fill="#9C9C9C"/>
</svg>
